<?xml version="1.0" encoding="UTF-8" standalone="no"?>
<!-- Created with Inkscape (http://www.inkscape.org/) -->

<svg
   width="270.92999mm"
   height="270.92999mm"
   viewBox="0 0 270.92999 270.92999"
   version="1.1"
   id="svg5"
   inkscape:version="1.2.2 (732a01da63, 2022-12-09)"
   sodipodi:docname="drawing.svg"
   inkscape:export-filename="drawing.png"
   inkscape:export-xdpi="96"
   inkscape:export-ydpi="96"
   xmlns:inkscape="http://www.inkscape.org/namespaces/inkscape"
   xmlns:sodipodi="http://sodipodi.sourceforge.net/DTD/sodipodi-0.dtd"
   xmlns:xlink="http://www.w3.org/1999/xlink"
   xmlns="http://www.w3.org/2000/svg"
   xmlns:svg="http://www.w3.org/2000/svg">
  <sodipodi:namedview
     id="namedview7"
     pagecolor="#ffffff"
     bordercolor="#000000"
     borderopacity="0.25"
     inkscape:showpageshadow="false"
     inkscape:pageopacity="0.0"
     inkscape:pagecheckerboard="false"
     inkscape:deskcolor="#d1d1d1"
     inkscape:document-units="mm"
     showgrid="true"
     inkscape:zoom="2.2898389"
     inkscape:cx="98.041833"
     inkscape:cy="101.31717"
     inkscape:window-width="1920"
     inkscape:window-height="1009"
     inkscape:window-x="1912"
     inkscape:window-y="-8"
     inkscape:window-maximized="1"
     inkscape:current-layer="layer1"
     borderlayer="true">
    <inkscape:grid
       type="xygrid"
       id="grid132"
       spacingx="33.859998"
       spacingy="33.859998"
       units="mm"
       empspacing="4"
       originx="0"
       originy="0"
       dotted="false" />
    <inkscape:grid
       type="xygrid"
       id="grid134"
       spacingx="4.2324997"
       spacingy="4.2324997"
       empspacing="4"
       enabled="true"
       units="mm"
       originx="0"
       originy="0" />
  </sodipodi:namedview>
  <defs
     id="defs2">
    <rect
       x="144.51933"
       y="37.673842"
       width="107.12131"
       height="34.128723"
       id="rect2276" />
    <rect
       x="144.51933"
       y="37.673843"
       width="107.12131"
       height="34.128723"
       id="rect2276-2" />
    <rect
       x="144.51933"
       y="37.673843"
       width="107.12131"
       height="34.128723"
       id="rect2276-2-1" />
    <filter
       style="color-interpolation-filters:sRGB;"
       inkscape:label="Noise Fill"
       id="filter5667"
       x="-0.0032423985"
       y="-0.0065003114"
       width="1.0064848"
       height="1.0130006">
      <feTurbulence
         type="fractalNoise"
         baseFrequency="20 40"
         numOctaves="5"
         seed="1"
         result="turbulence"
         id="feTurbulence5651" />
      <feComposite
         in="SourceGraphic"
         in2="turbulence"
         operator="in"
         result="composite1"
         id="feComposite5653" />
      <feColorMatrix
         values="1 0 0 0 0 0 1 0 0 0 0 0 1 0 0 0 0 0 3 -1 "
         result="color"
         id="feColorMatrix5655" />
      <feFlood
         flood-opacity="1"
         flood-color="rgb(21,40,57)"
         result="flood"
         id="feFlood5657" />
      <feMerge
         result="merge"
         id="feMerge5663">
        <feMergeNode
           in="flood"
           id="feMergeNode5659" />
        <feMergeNode
           in="color"
           id="feMergeNode5661" />
      </feMerge>
      <feComposite
         in2="SourceGraphic"
         operator="in"
         result="composite2"
         id="feComposite5665" />
    </filter>
  </defs>
  <g
     inkscape:label="Warstwa 1"
     inkscape:groupmode="layer"
     id="layer1">
    <rect
       style="fill:#081ac4;fill-opacity:0.154004;fill-rule:evenodd;stroke:#a45757;stroke-width:0.192425;stroke-dasharray:none;stroke-opacity:0.994334"
       id="rect4176"
       width="50.673908"
       height="16.513855"
       x="17.006516"
       y="0.14862013" />
    <rect
       style="fill:#081ac4;fill-opacity:0.154004;fill-rule:evenodd;stroke:#a45757;stroke-width:0.192425;stroke-dasharray:none;stroke-opacity:0.994334"
       id="rect4490"
       width="50.754574"
       height="16.995323"
       x="16.970577"
       y="16.864824" />
    <rect
       style="fill:#081ac4;fill-opacity:0.154004;fill-rule:evenodd;stroke:#a45757;stroke-width:0.192425;stroke-dasharray:none;stroke-opacity:0.994334"
       id="rect4492"
       width="50.581059"
       height="16.648479"
       x="17.057337"
       y="33.975761" />
    <text
       xml:space="preserve"
       transform="matrix(0.26458333,0,0,0.26458333,-1.2873889,12.714773)"
       id="text2274"
       style="font-style:normal;font-variant:normal;font-weight:normal;font-stretch:normal;font-size:26.6667px;font-family:'Vladimir Script';-inkscape-font-specification:'Vladimir Script';font-variant-ligatures:normal;font-variant-caps:normal;font-variant-numeric:normal;font-variant-east-asian:normal;white-space:pre;shape-inside:url(#rect2276);shape-padding:0.873424;display:inline;fill:#800000;fill-opacity:1;fill-rule:evenodd;stroke:#a45757;stroke-width:0.839055;stroke-dasharray:none;stroke-opacity:0.994334"><tspan
         x="145.39258"
         y="59.715827"
         id="tspan11989">Powerup1</tspan></text>
    <text
       xml:space="preserve"
       transform="matrix(0.26458333,0,0,0.26458333,-2.5907879,28.499437)"
       id="text2274-6"
       style="font-style:normal;font-variant:normal;font-weight:normal;font-stretch:normal;font-size:26.6667px;font-family:'Vladimir Script';-inkscape-font-specification:'Vladimir Script';font-variant-ligatures:normal;font-variant-caps:normal;font-variant-numeric:normal;font-variant-east-asian:normal;white-space:pre;shape-inside:url(#rect2276-2);shape-padding:0.873424;display:inline;fill:#800000;fill-opacity:1;fill-rule:evenodd;stroke:#a45757;stroke-width:0.839055;stroke-dasharray:none;stroke-opacity:0.994334"><tspan
         x="145.39258"
         y="59.715827"
         id="tspan11991">Powerup2</tspan></text>
    <text
       xml:space="preserve"
       transform="matrix(0.26458333,0,0,0.26458333,-0.88995047,-4.3113591)"
       id="text2274-6-6"
       style="font-style:normal;font-variant:normal;font-weight:normal;font-stretch:normal;font-size:26.6667px;font-family:'Vladimir Script';-inkscape-font-specification:'Vladimir Script';font-variant-ligatures:normal;font-variant-caps:normal;font-variant-numeric:normal;font-variant-east-asian:normal;white-space:pre;shape-inside:url(#rect2276-2-1);shape-padding:0.873424;display:inline;fill:#800000;fill-opacity:1;fill-rule:evenodd;stroke:#a45757;stroke-width:0.839055;stroke-dasharray:none;stroke-opacity:0.994334"><tspan
         x="145.39258"
         y="59.715827"
         id="tspan11993">Powerup3</tspan></text>
    <rect
       style="fill:#800000;fill-opacity:1;fill-rule:evenodd;stroke:#a45757;stroke-width:0.222;stroke-opacity:0.994334"
       id="rect5284"
       width="34.233917"
       height="17.076105"
       x="101.39449"
       y="50.738098" />
    <rect
       style="fill:#800000;fill-opacity:1;fill-rule:evenodd;stroke:#a45757;stroke-width:0.222;stroke-opacity:0.994334;filter:url(#filter5667)"
       id="rect5286"
       width="34.233917"
       height="17.076105"
       x="101.31279"
       y="50.738098" />
    <g
       id="g11909"
       transform="matrix(0.44912525,0,0,0.44912525,-44.755544,0.67651124)">
      <path
         id="path403"
         style="fill:#081ac4;fill-opacity:0.154004;fill-rule:evenodd;stroke:#a45757;stroke-width:0.222;stroke-opacity:0.994334"
         d="M 118.51008,0 A 16.929996,16.929996 0 0 0 101.57985,16.930233 16.929996,16.929996 0 0 0 118.51008,33.859949 16.929996,16.929996 0 0 0 135.43979,16.930233 16.929996,16.929996 0 0 0 118.51008,0 Z m 0,1.3074137 A 15.622735,15.622735 0 0 1 134.1329,16.930233 15.622735,15.622735 0 0 1 118.51008,32.552535 15.622735,15.622735 0 0 1 102.88726,16.930233 15.622735,15.622735 0 0 1 118.51008,1.3074137 Z" />
      <path
         id="circle407"
         style="fill:#081ac4;fill-opacity:0.154004;fill-rule:evenodd;stroke:#a45757;stroke-width:0.222;stroke-opacity:0.994334"
         d="m 118.51008,2.9248861 a 14.005081,14.005081 0 0 0 -14.00535,14.0053469 14.005081,14.005081 0 0 0 14.00535,14.00483 14.005081,14.005081 0 0 0 14.00483,-14.00483 14.005081,14.005081 0 0 0 -14.00483,-14.0053469 z m 0,3.6974487 a 10.307587,10.307587 0 0 1 10.30738,10.3078982 10.307587,10.307587 0 0 1 -10.30738,10.307381 10.307587,10.307587 0 0 1 -10.3079,-10.307381 10.307587,10.307587 0 0 1 10.3079,-10.3078982 z" />
      <text
         xml:space="preserve"
         style="font-style:normal;font-variant:normal;font-weight:normal;font-stretch:normal;font-size:4.23333px;font-family:'Vladimir Script';-inkscape-font-specification:'Vladimir Script';text-align:center;text-anchor:middle;fill:#800000;fill-opacity:1;fill-rule:evenodd;stroke:#a45757;stroke-width:0.26839;stroke-opacity:0.994334"
         id="text577"><textPath
           xlink:href="#path469"
           startOffset="50%"
           id="textPath3777"
           style="font-style:normal;font-variant:normal;font-weight:normal;font-stretch:normal;font-family:Rockwell;-inkscape-font-specification:Rockwell">Vindicta Naturae</textPath></text>
      <circle
         style="fill:none;fill-opacity:0.154004;fill-rule:evenodd;stroke:none;stroke-width:0.289677;stroke-opacity:0.994334"
         id="path469"
         cx="16.929998"
         cy="-118.50999"
         transform="rotate(90)"
         r="10.735784" />
      <path
         id="path11849"
         style="fill:#081ac4;fill-opacity:0.154004;fill-rule:evenodd;stroke:#a45757;stroke-width:0.118136;stroke-opacity:0.994334"
         d="m 118.50996,7.9207926 a 9.0091933,9.0091933 0 0 0 -9.00932,9.0093194 9.0091933,9.0091933 0 0 0 9.00932,9.009044 9.0091933,9.0091933 0 0 0 9.00904,-9.009044 9.0091933,9.0091933 0 0 0 -9.00904,-9.0093194 z m 0,0.6957322 a 8.3135424,8.3135424 0 0 1 8.31359,8.3135872 8.3135424,8.3135424 0 0 1 -8.31359,8.313312 8.3135424,8.3135424 0 0 1 -8.31359,-8.313312 8.3135424,8.3135424 0 0 1 8.31359,-8.3135872 z" />
    </g>
    <g
       id="g11923"
       transform="matrix(0.44912525,0,0,0.44912525,-44.755544,17.71965)">
      <path
         id="path11911"
         style="fill:#081ac4;fill-opacity:0.154004;fill-rule:evenodd;stroke:#a45757;stroke-width:0.222;stroke-opacity:0.994334"
         d="M 118.51008,0 A 16.929996,16.929996 0 0 0 101.57985,16.930233 16.929996,16.929996 0 0 0 118.51008,33.859949 16.929996,16.929996 0 0 0 135.43979,16.930233 16.929996,16.929996 0 0 0 118.51008,0 Z m 0,1.3074137 A 15.622735,15.622735 0 0 1 134.1329,16.930233 15.622735,15.622735 0 0 1 118.51008,32.552535 15.622735,15.622735 0 0 1 102.88726,16.930233 15.622735,15.622735 0 0 1 118.51008,1.3074137 Z" />
      <path
         id="path11913"
         style="fill:#081ac4;fill-opacity:0.154004;fill-rule:evenodd;stroke:#a45757;stroke-width:0.222;stroke-opacity:0.994334"
         d="m 118.51008,2.9248861 a 14.005081,14.005081 0 0 0 -14.00535,14.0053469 14.005081,14.005081 0 0 0 14.00535,14.00483 14.005081,14.005081 0 0 0 14.00483,-14.00483 14.005081,14.005081 0 0 0 -14.00483,-14.0053469 z m 0,3.6974487 a 10.307587,10.307587 0 0 1 10.30738,10.3078982 10.307587,10.307587 0 0 1 -10.30738,10.307381 10.307587,10.307587 0 0 1 -10.3079,-10.307381 10.307587,10.307587 0 0 1 10.3079,-10.3078982 z" />
      <text
         xml:space="preserve"
         style="font-style:normal;font-variant:normal;font-weight:normal;font-stretch:normal;font-size:4.23333px;font-family:'Vladimir Script';-inkscape-font-specification:'Vladimir Script';text-align:center;text-anchor:middle;fill:#800000;fill-opacity:1;fill-rule:evenodd;stroke:#a45757;stroke-width:0.26839;stroke-opacity:0.994334"
         id="text11917"><textPath
           xlink:href="#path469"
           startOffset="50%"
           id="textPath11915"
           style="font-style:normal;font-variant:normal;font-weight:normal;font-stretch:normal;font-family:Rockwell;-inkscape-font-specification:Rockwell">Vindicta Naturae</textPath></text>
      <circle
         style="fill:none;fill-opacity:0.154004;fill-rule:evenodd;stroke:none;stroke-width:0.289677;stroke-opacity:0.994334"
         id="circle11919"
         cx="16.929998"
         cy="-118.50999"
         transform="rotate(90)"
         r="10.735784" />
      <path
         id="path11921"
         style="fill:#081ac4;fill-opacity:0.154004;fill-rule:evenodd;stroke:#a45757;stroke-width:0.118136;stroke-opacity:0.994334"
         d="m 118.50996,7.9207926 a 9.0091933,9.0091933 0 0 0 -9.00932,9.0093194 9.0091933,9.0091933 0 0 0 9.00932,9.009044 9.0091933,9.0091933 0 0 0 9.00904,-9.009044 9.0091933,9.0091933 0 0 0 -9.00904,-9.0093194 z m 0,0.6957322 a 8.3135424,8.3135424 0 0 1 8.31359,8.3135872 8.3135424,8.3135424 0 0 1 -8.31359,8.313312 8.3135424,8.3135424 0 0 1 -8.31359,-8.313312 8.3135424,8.3135424 0 0 1 8.31359,-8.3135872 z" />
    </g>
    <g
       id="g11937"
       transform="matrix(0.44912525,0,0,0.44912525,-44.755544,34.714052)">
      <path
         id="path11925"
         style="fill:#081ac4;fill-opacity:0.154004;fill-rule:evenodd;stroke:#a45757;stroke-width:0.222;stroke-opacity:0.994334"
         d="M 118.51008,0 A 16.929996,16.929996 0 0 0 101.57985,16.930233 16.929996,16.929996 0 0 0 118.51008,33.859949 16.929996,16.929996 0 0 0 135.43979,16.930233 16.929996,16.929996 0 0 0 118.51008,0 Z m 0,1.3074137 A 15.622735,15.622735 0 0 1 134.1329,16.930233 15.622735,15.622735 0 0 1 118.51008,32.552535 15.622735,15.622735 0 0 1 102.88726,16.930233 15.622735,15.622735 0 0 1 118.51008,1.3074137 Z" />
      <path
         id="path11927"
         style="fill:#081ac4;fill-opacity:0.154004;fill-rule:evenodd;stroke:#a45757;stroke-width:0.222;stroke-opacity:0.994334"
         d="m 118.51008,2.9248861 a 14.005081,14.005081 0 0 0 -14.00535,14.0053469 14.005081,14.005081 0 0 0 14.00535,14.00483 14.005081,14.005081 0 0 0 14.00483,-14.00483 14.005081,14.005081 0 0 0 -14.00483,-14.0053469 z m 0,3.6974487 a 10.307587,10.307587 0 0 1 10.30738,10.3078982 10.307587,10.307587 0 0 1 -10.30738,10.307381 10.307587,10.307587 0 0 1 -10.3079,-10.307381 10.307587,10.307587 0 0 1 10.3079,-10.3078982 z" />
      <text
         xml:space="preserve"
         style="font-style:normal;font-variant:normal;font-weight:normal;font-stretch:normal;font-size:4.23333px;font-family:'Vladimir Script';-inkscape-font-specification:'Vladimir Script';text-align:center;text-anchor:middle;fill:#800000;fill-opacity:1;fill-rule:evenodd;stroke:#a45757;stroke-width:0.26839;stroke-opacity:0.994334"
         id="text11931"><textPath
           xlink:href="#path469"
           startOffset="50%"
           id="textPath11929"
           style="font-style:normal;font-variant:normal;font-weight:normal;font-stretch:normal;font-family:Rockwell;-inkscape-font-specification:Rockwell">Vindicta Naturae</textPath></text>
      <circle
         style="fill:none;fill-opacity:0.154004;fill-rule:evenodd;stroke:none;stroke-width:0.289677;stroke-opacity:0.994334"
         id="circle11933"
         cx="16.929998"
         cy="-118.50999"
         transform="rotate(90)"
         r="10.735784" />
      <path
         id="path11935"
         style="fill:#081ac4;fill-opacity:0.154004;fill-rule:evenodd;stroke:#a45757;stroke-width:0.118136;stroke-opacity:0.994334"
         d="m 118.50996,7.9207926 a 9.0091933,9.0091933 0 0 0 -9.00932,9.0093194 9.0091933,9.0091933 0 0 0 9.00932,9.009044 9.0091933,9.0091933 0 0 0 9.00904,-9.009044 9.0091933,9.0091933 0 0 0 -9.00904,-9.0093194 z m 0,0.6957322 a 8.3135424,8.3135424 0 0 1 8.31359,8.3135872 8.3135424,8.3135424 0 0 1 -8.31359,8.313312 8.3135424,8.3135424 0 0 1 -8.31359,-8.313312 8.3135424,8.3135424 0 0 1 8.31359,-8.3135872 z" />
    </g>
  </g>
</svg>
